<?xml version="1.0" encoding="UTF-8"?>
<svg id="Layer_1" xmlns="http://www.w3.org/2000/svg" version="1.1" viewBox="0 0 1200 800">
  <!-- Generator: Adobe Illustrator 30.0.0, SVG Export Plug-In . SVG Version: 2.1.1 Build 123)  -->
  <defs>
    <style>
      .st0 {
        fill: #e82127;
      }
    </style>
  </defs>
  <path class="st0" d="M631.98,784.67l108.09-607.91c103.03,0,135.53,11.3,140.23,57.41,0,0,69.12-25.77,103.98-78.11-136.03-63.04-272.71-65.88-272.71-65.88l-79.76,97.15h.18l-79.76-97.16s-136.68,2.84-272.7,65.88c34.82,52.34,103.97,78.11,103.97,78.11,4.71-46.12,37.18-57.41,139.51-57.48l108.96,608"/>
  <path class="st0" d="M631.94,62.13c109.96-.84,235.82,17.01,364.67,73.17,17.22-31,21.64-44.7,21.64-44.7C877.4,34.88,745.5,15.81,631.91,15.33c-113.57.47-245.47,19.55-386.3,75.28,0,0,6.29,16.87,21.63,44.7,128.82-56.16,254.71-74.01,364.67-73.17h.01"/>
</svg>